<?xml version="1.0" encoding="UTF-8" standalone="no"?>
<!-- Created with Inkscape (http://www.inkscape.org/) -->

<svg
   xmlns:dc="http://purl.org/dc/elements/1.1/"
   xmlns:cc="http://creativecommons.org/ns#"
   xmlns:rdf="http://www.w3.org/1999/02/22-rdf-syntax-ns#"
   xmlns:svg="http://www.w3.org/2000/svg"
   xmlns="http://www.w3.org/2000/svg"
   xmlns:sodipodi="http://sodipodi.sourceforge.net/DTD/sodipodi-0.dtd"
   xmlns:inkscape="http://www.inkscape.org/namespaces/inkscape"
   width="1257.1428"
   height="228.33562"
   id="svg4757"
   version="1.1"
   inkscape:version="0.48.3.1 r9886"
   sodipodi:docname="dessin.svg">
  <defs
     id="defs4759" />
  <sodipodi:namedview
     id="base"
     pagecolor="#ffffff"
     bordercolor="#666666"
     borderopacity="1.0"
     inkscape:pageopacity="0.0"
     inkscape:pageshadow="2"
     inkscape:zoom="0.24106482"
     inkscape:cx="-71.22339"
     inkscape:cy="-93.378956"
     inkscape:document-units="px"
     inkscape:current-layer="layer1"
     showgrid="false"
     inkscape:window-width="1600"
     inkscape:window-height="876"
     inkscape:window-x="0"
     inkscape:window-y="24"
     inkscape:window-maximized="1"
     inkscape:snap-page="false"
     fit-margin-top="0"
     fit-margin-left="0"
     fit-margin-right="0"
     fit-margin-bottom="0" />
  <metadata
     id="metadata4762">
    <rdf:RDF>
      <cc:Work
         rdf:about="">
        <dc:format>image/svg+xml</dc:format>
        <dc:type
           rdf:resource="http://purl.org/dc/dcmitype/StillImage" />
        <dc:title></dc:title>
      </cc:Work>
    </rdf:RDF>
  </metadata>
  <g
     inkscape:label="Calque 1"
     inkscape:groupmode="layer"
     id="layer1"
     transform="translate(162.85711,-306.76581)">
    <path
       style="fill:#ffffff;fill-opacity:1;stroke:none"
       d="m 88.571446,510.6606 0,-76.84335 10.53571,-10.80017 10.535724,10.80017 0,77.91478 -10.535724,10.80005 -10.53571,-10.80005 0,-0.53572 z"
       id="path3770-02-7"
       inkscape:connector-curvature="0"
       sodipodi:nodetypes="ccccccccc" />
    <path
       style="fill:#ffffff;fill-opacity:1;stroke:none"
       d="m 113.54258,410.44771 76.84336,0 10.80017,10.53571 -10.80017,10.53572 -77.91479,0 -10.80005,-10.53572 10.80005,-10.53571 0.53572,0 z"
       id="path3770-3-8-4"
       inkscape:connector-curvature="0"
       sodipodi:nodetypes="ccccccccc" />
    <path
       style="fill:#ffffff;fill-opacity:1;stroke:none"
       d="m 113.54259,514.02999 76.84335,0 10.80017,10.53571 -10.80017,10.53572 -77.91478,0 -10.80006,-10.53572 10.80006,-10.53571 0.53572,0 z"
       id="path3770-3-9-1-7"
       inkscape:connector-curvature="0"
       sodipodi:nodetypes="ccccccccc" />
    <path
       style="fill:#ffffff;fill-opacity:1;stroke:none"
       d="m 113.54258,306.76581 76.84336,0 10.80017,10.53571 -10.80017,10.53572 -77.91479,0 -10.80005,-10.53572 10.80005,-10.53571 0.53572,0 z"
       id="path3770-3-6-5-42"
       inkscape:connector-curvature="0"
       sodipodi:nodetypes="ccccccccc" />
    <path
       style="fill:#ffffff;fill-opacity:1;stroke:none"
       d="m 193.21431,407.25149 0,-76.84335 10.53571,-10.80017 10.53571,10.80017 0,77.91478 -10.53571,10.80005 -10.53571,-10.80005 0,-0.53572 z"
       id="path3770-7-6-3-9"
       inkscape:connector-curvature="0"
       sodipodi:nodetypes="ccccccccc" />
    <path
       style="fill:#ffffff;fill-opacity:1;stroke:none"
       d="m 239.25686,410.44771 76.84336,0 10.80017,10.53571 -10.80017,10.53572 -77.91479,0 -10.80005,-10.53572 10.80005,-10.53571 0.53572,0 z"
       id="path3770-3-8-1-2"
       inkscape:connector-curvature="0"
       sodipodi:nodetypes="ccccccccc" />
    <path
       style="fill:#ffffff;fill-opacity:1;stroke:none"
       d="m 239.25687,514.02999 76.84335,0 10.80017,10.53571 -10.80017,10.53572 -77.91478,0 -10.80006,-10.53572 10.80006,-10.53571 0.53572,0 z"
       id="path3770-3-9-1-4-0"
       inkscape:connector-curvature="0"
       sodipodi:nodetypes="ccccccccc" />
    <path
       style="fill:#ffffff;fill-opacity:1;stroke:none"
       d="m 318.92859,510.6606 0,-76.84335 10.53571,-10.80017 10.53571,10.80017 0,77.91478 -10.53571,10.80005 -10.53571,-10.80005 0,-0.53572 z"
       id="path3770-7-5-3-9"
       inkscape:connector-curvature="0"
       sodipodi:nodetypes="ccccccccc" />
    <path
       style="fill:#ffffff;fill-opacity:1;stroke:none"
       d="m 239.25686,306.76581 76.84336,0 10.80017,10.53571 -10.80017,10.53572 -77.91479,0 -10.80005,-10.53572 10.80005,-10.53571 0.53572,0 z"
       id="path3770-3-6-5-4-3"
       inkscape:connector-curvature="0"
       sodipodi:nodetypes="ccccccccc" />
    <path
       style="fill:#ffffff;fill-opacity:1;stroke:none"
       d="m 318.92859,407.25149 0,-76.84335 10.53571,-10.80017 10.53571,10.80017 0,77.91478 -10.53571,10.80005 -10.53571,-10.80005 0,-0.53572 z"
       id="path3770-7-6-3-1-6"
       inkscape:connector-curvature="0"
       sodipodi:nodetypes="ccccccccc" />
    <path
       style="fill:#ffffff;fill-opacity:1;stroke:none"
       d="m 364.97114,410.44771 76.84336,0 10.80017,10.53571 -10.80017,10.53572 -77.91479,0 -10.80005,-10.53572 10.80005,-10.53571 0.53572,0 z"
       id="path3770-3-8-2-7"
       inkscape:connector-curvature="0"
       sodipodi:nodetypes="ccccccccc" />
    <path
       style="fill:#ffffff;fill-opacity:1;stroke:none"
       d="m 444.64287,510.6606 0,-76.84335 10.53571,-10.80017 10.53571,10.80017 0,77.91478 -10.53571,10.80005 -10.53571,-10.80005 0,-0.53572 z"
       id="path3770-7-5-7-7"
       inkscape:connector-curvature="0"
       sodipodi:nodetypes="ccccccccc" />
    <path
       style="fill:#ffffff;fill-opacity:1;stroke:none"
       d="m 340.00001,407.25149 0,-76.84335 10.53571,-10.80017 10.53572,10.80017 0,77.91478 -10.53572,10.80005 -10.53571,-10.80005 0,-0.53572 z"
       id="path3770-0-4-6-08"
       inkscape:connector-curvature="0"
       sodipodi:nodetypes="ccccccccc" />
    <path
       style="fill:#ffffff;fill-opacity:1;stroke:none"
       d="m 444.64287,407.25149 0,-76.84335 10.53571,-10.80017 10.53571,10.80017 0,77.91478 -10.53571,10.80005 -10.53571,-10.80005 0,-0.53572 z"
       id="path3770-7-6-3-5-3"
       inkscape:connector-curvature="0"
       sodipodi:nodetypes="ccccccccc" />
    <path
       style="fill:#ffffff;fill-opacity:1;stroke:none"
       d="m 490.68541,410.44771 76.8434,0 10.8001,10.53571 -10.8001,10.53572 -77.9148,0 -10.80007,-10.53572 10.80007,-10.53571 0.5357,0 z"
       id="path3770-3-8-1-6-1"
       inkscape:connector-curvature="0"
       sodipodi:nodetypes="ccccccccc" />
    <path
       style="fill:#ffffff;fill-opacity:1;stroke:none"
       d="m 490.68541,514.02999 76.8434,0 10.8001,10.53571 -10.8001,10.53572 -77.9148,0 -10.80007,-10.53572 10.80007,-10.53571 0.5357,0 z"
       id="path3770-3-9-1-4-8-9"
       inkscape:connector-curvature="0"
       sodipodi:nodetypes="ccccccccc" />
    <path
       style="fill:#ffffff;fill-opacity:1;stroke:none"
       d="m 570.35711,510.6606 0,-76.84335 10.5358,-10.80017 10.5357,10.80017 0,77.91478 -10.5357,10.80005 -10.5358,-10.80005 0,-0.53572 z"
       id="path3770-7-5-3-2-2"
       inkscape:connector-curvature="0"
       sodipodi:nodetypes="ccccccccc" />
    <path
       style="fill:#ffffff;fill-opacity:1;stroke:none"
       d="m 465.71429,407.25149 0,-76.84335 10.53571,-10.80017 10.53571,10.80017 0,77.91478 -10.53571,10.80005 -10.53571,-10.80005 0,-0.53572 z"
       id="path3770-0-4-9-7-0"
       inkscape:connector-curvature="0"
       sodipodi:nodetypes="ccccccccc" />
    <path
       style="fill:#ffffff;fill-opacity:1;stroke:none"
       d="m 490.68541,306.76581 76.8434,0 10.8001,10.53571 -10.8001,10.53572 -77.9148,0 -10.80007,-10.53572 10.80007,-10.53571 0.5357,0 z"
       id="path3770-3-6-5-4-5-5"
       inkscape:connector-curvature="0"
       sodipodi:nodetypes="ccccccccc" />
    <path
       style="fill:#ffffff;fill-opacity:1;stroke:none"
       d="m 591.42861,510.6606 0,-76.84335 10.5357,-10.80017 10.5357,10.80017 0,77.91478 -10.5357,10.80005 -10.5357,-10.80005 0,-0.53572 z"
       id="path3770-02-45-6"
       inkscape:connector-curvature="0"
       sodipodi:nodetypes="ccccccccc" />
    <path
       style="fill:#ffffff;fill-opacity:1;stroke:none"
       d="m 616.39971,410.44771 76.8434,0 10.8001,10.53571 -10.8001,10.53572 -77.9148,0 -10.8001,-10.53572 10.8001,-10.53571 0.5357,0 z"
       id="path3770-3-8-8-4"
       inkscape:connector-curvature="0"
       sodipodi:nodetypes="ccccccccc" />
    <path
       style="fill:#ffffff;fill-opacity:1;stroke:none"
       d="m 616.39971,514.02999 76.8434,0 10.8001,10.53571 -10.8001,10.53572 -77.9148,0 -10.8001,-10.53572 10.8001,-10.53571 0.5357,0 z"
       id="path3770-3-9-1-9-3"
       inkscape:connector-curvature="0"
       sodipodi:nodetypes="ccccccccc" />
    <path
       style="fill:#ffffff;fill-opacity:1;stroke:none"
       d="m 696.07141,510.6606 0,-76.84335 10.5357,-10.80017 10.5357,10.80017 0,77.91478 -10.5357,10.80005 -10.5357,-10.80005 0,-0.53572 z"
       id="path3770-7-5-2-0"
       inkscape:connector-curvature="0"
       sodipodi:nodetypes="ccccccccc" />
    <path
       style="fill:#ffffff;fill-opacity:1;stroke:none"
       d="m 591.42861,407.25149 0,-76.84335 10.5357,-10.80017 10.5357,10.80017 0,77.91478 -10.5357,10.80005 -10.5357,-10.80005 0,-0.53572 z"
       id="path3770-0-4-5-8"
       inkscape:connector-curvature="0"
       sodipodi:nodetypes="ccccccccc" />
    <path
       style="fill:#ffffff;fill-opacity:1;stroke:none"
       d="m 616.39971,306.76581 76.8434,0 10.8001,10.53571 -10.8001,10.53572 -77.9148,0 -10.8001,-10.53572 10.8001,-10.53571 0.5357,0 z"
       id="path3770-3-6-5-7-5"
       inkscape:connector-curvature="0"
       sodipodi:nodetypes="ccccccccc" />
    <path
       style="fill:#ffffff;fill-opacity:1;stroke:none"
       d="m 821.78571,510.6606 0,-76.84335 10.5357,-10.80017 10.53568,10.80017 0,77.91478 -10.53568,10.80005 -10.5357,-10.80005 0,-0.53572 z"
       id="path3770-7-5-3-8-3"
       inkscape:connector-curvature="0"
       sodipodi:nodetypes="ccccccccc" />
    <path
       style="fill:#ffffff;fill-opacity:1;stroke:none"
       d="m 742.11401,306.76581 76.8433,0 10.8002,10.53571 -10.8002,10.53572 -77.9148,0 -10.8,-10.53572 10.8,-10.53571 0.5358,0 z"
       id="path3770-3-6-5-4-50-0"
       inkscape:connector-curvature="0"
       sodipodi:nodetypes="ccccccccc" />
    <path
       style="fill:#ffffff;fill-opacity:1;stroke:none"
       d="m 821.78571,407.25149 0,-76.84335 10.5357,-10.80017 10.53568,10.80017 0,77.91478 -10.53568,10.80005 -10.5357,-10.80005 0,-0.53572 z"
       id="path3770-7-6-3-1-5-8"
       inkscape:connector-curvature="0"
       sodipodi:nodetypes="ccccccccc" />
    <path
       style="fill:#ffffff;fill-opacity:1;stroke:none"
       d="m 842.85709,510.6606 0,-76.84335 10.5358,-10.80017 10.5357,10.80017 0,77.91478 -10.5357,10.80005 -10.5358,-10.80005 0,-0.53572 z"
       id="path3770-02-4-8-7"
       inkscape:connector-curvature="0"
       sodipodi:nodetypes="ccccccccc" />
    <path
       style="fill:#ffffff;fill-opacity:1;stroke:none"
       d="m 867.82829,410.44771 76.8433,0 10.8002,10.53571 -10.8002,10.53572 -77.9148,0 -10.8,-10.53572 10.8,-10.53571 0.5358,0 z"
       id="path3770-3-8-2-8-9"
       inkscape:connector-curvature="0"
       sodipodi:nodetypes="ccccccccc" />
    <path
       style="fill:#ffffff;fill-opacity:1;stroke:none"
       d="m 867.82829,514.02999 76.8433,0 10.8002,10.53571 -10.8002,10.53572 -77.9147,0 -10.8001,-10.53572 10.8001,-10.53571 0.5357,0 z"
       id="path3770-3-9-1-1-0-7"
       inkscape:connector-curvature="0"
       sodipodi:nodetypes="ccccccccc" />
    <path
       style="fill:#ffffff;fill-opacity:1;stroke:none"
       d="m 947.49999,510.6606 0,-76.84335 10.5357,-10.80017 10.5357,10.80017 0,77.91478 -10.5357,10.80005 -10.5357,-10.80005 0,-0.53572 z"
       id="path3770-7-5-7-9-7"
       inkscape:connector-curvature="0"
       sodipodi:nodetypes="ccccccccc" />
    <path
       style="fill:#ffffff;fill-opacity:1;stroke:none"
       d="m 842.85709,407.25149 0,-76.84335 10.5358,-10.80017 10.5357,10.80017 0,77.91478 -10.5357,10.80005 -10.5358,-10.80005 0,-0.53572 z"
       id="path3770-0-4-6-0-4"
       inkscape:connector-curvature="0"
       sodipodi:nodetypes="ccccccccc" />
    <path
       style="fill:#ffffff;fill-opacity:1;stroke:none"
       d="m 867.82829,306.76581 76.8433,0 10.8002,10.53571 -10.8002,10.53572 -77.9148,0 -10.8,-10.53572 10.8,-10.53571 0.5358,0 z"
       id="path3770-3-6-5-1-9-6"
       inkscape:connector-curvature="0"
       sodipodi:nodetypes="ccccccccc" />
    <path
       style="fill:#ffffff;fill-opacity:1;stroke:none"
       d="m 947.49999,407.25149 0,-76.84335 10.5357,-10.80017 10.5357,10.80017 0,77.91478 -10.5357,10.80005 -10.5357,-10.80005 0,-0.53572 z"
       id="path3770-7-6-3-5-8-0"
       inkscape:connector-curvature="0"
       sodipodi:nodetypes="ccccccccc" />
    <path
       style="fill:#ffffff;fill-opacity:1;stroke:none"
       d="m 993.54249,410.44771 76.84341,0 10.8002,10.53571 -10.8002,10.53572 -77.91481,0 -10.8,-10.53572 10.8,-10.53571 0.5357,0 z"
       id="path3770-3-8-1-6-5-1"
       inkscape:connector-curvature="0"
       sodipodi:nodetypes="ccccccccc" />
    <path
       style="fill:#ffffff;fill-opacity:1;stroke:none"
       d="m 993.54259,514.02999 76.84331,0 10.8002,10.53571 -10.8002,10.53572 -77.91481,0 -10.8,-10.53572 10.8,-10.53571 0.5358,0 z"
       id="path3770-3-9-1-4-8-4-3"
       inkscape:connector-curvature="0"
       sodipodi:nodetypes="ccccccccc" />
    <path
       style="fill:#ffffff;fill-opacity:1;stroke:none"
       d="m 1073.2143,510.6606 0,-76.84335 10.5357,-10.80017 10.5357,10.80017 0,77.91478 -10.5357,10.80005 -10.5357,-10.80005 0,-0.53572 z"
       id="path3770-7-5-3-2-5-1"
       inkscape:connector-curvature="0"
       sodipodi:nodetypes="ccccccccc" />
    <path
       style="fill:#ffffff;fill-opacity:1;stroke:none"
       d="m 968.57139,407.25149 0,-76.84335 10.5357,-10.80017 10.5358,10.80017 0,77.91478 -10.5358,10.80005 -10.5357,-10.80005 0,-0.53572 z"
       id="path3770-0-4-9-7-1-3"
       inkscape:connector-curvature="0"
       sodipodi:nodetypes="ccccccccc" />
    <path
       style="fill:#ffffff;fill-opacity:1;stroke:none"
       d="m 993.54249,306.76581 76.84341,0 10.8002,10.53571 -10.8002,10.53572 -77.91481,0 -10.8,-10.53572 10.8,-10.53571 0.5357,0 z"
       id="path3770-3-6-5-4-5-9-4"
       inkscape:connector-curvature="0"
       sodipodi:nodetypes="ccccccccc" />
    <path
       style="fill:#ffffff;fill-opacity:1;stroke:none"
       d="m 1073.2143,407.25149 0,-76.84335 10.5357,-10.80017 10.5357,10.80017 0,77.91478 -10.5357,10.80005 -10.5357,-10.80005 0,-0.53572 z"
       id="path3770-7-6-3-1-3-3-5"
       inkscape:connector-curvature="0"
       sodipodi:nodetypes="ccccccccc" />
    <path
       style="fill:#ffffff;fill-opacity:1;stroke:none"
       d="m -162.85711,510.6606 0,-76.84335 10.53571,-10.80017 10.53572,10.80017 0,77.91478 -10.53572,10.80005 -10.53571,-10.80005 0,-0.53572 z"
       id="path3770-02-48-5"
       inkscape:connector-curvature="0"
       sodipodi:nodetypes="ccccccccc" />
    <path
       style="fill:#ffffff;fill-opacity:1;stroke:none"
       d="m -137.88597,514.02999 76.843346,0 10.80017,10.53571 -10.80017,10.53572 -77.914776,0 -10.80006,-10.53572 10.80006,-10.53571 0.53572,0 z"
       id="path3770-3-9-1-15-5"
       inkscape:connector-curvature="0"
       sodipodi:nodetypes="ccccccccc" />
    <path
       style="fill:#ffffff;fill-opacity:1;stroke:none"
       d="m -58.214254,510.6606 0,-76.84335 10.53571,-10.80017 10.53571,10.80017 0,77.91478 -10.53571,10.80005 -10.53571,-10.80005 0,-0.53572 z"
       id="path3770-7-5-74-1"
       inkscape:connector-curvature="0"
       sodipodi:nodetypes="ccccccccc" />
    <path
       style="fill:#ffffff;fill-opacity:1;stroke:none"
       d="m -162.85711,407.25149 0,-76.84335 10.53571,-10.80017 10.53572,10.80017 0,77.91478 -10.53572,10.80005 -10.53571,-10.80005 0,-0.53572 z"
       id="path3770-0-4-8-5"
       inkscape:connector-curvature="0"
       sodipodi:nodetypes="ccccccccc" />
    <path
       style="fill:#ffffff;fill-opacity:1;stroke:none"
       d="m -137.88598,306.76581 76.843356,0 10.80017,10.53571 -10.80017,10.53572 -77.914786,0 -10.80005,-10.53572 10.80005,-10.53571 0.53572,0 z"
       id="path3770-3-6-5-78-0"
       inkscape:connector-curvature="0"
       sodipodi:nodetypes="ccccccccc" />
    <path
       style="fill:#ffffff;fill-opacity:1;stroke:none"
       d="m -58.214254,407.25149 0,-76.84335 10.53571,-10.80017 10.53571,10.80017 0,77.91478 -10.53571,10.80005 -10.53571,-10.80005 0,-0.53572 z"
       id="path3770-7-6-3-6-1"
       inkscape:connector-curvature="0"
       sodipodi:nodetypes="ccccccccc" />
    <path
       style="fill:#ffffff;fill-opacity:1;stroke:none"
       d="m 67.500026,510.6606 0,-76.84335 10.53571,-10.80017 10.53571,10.80017 0,77.91478 -10.53571,10.80005 -10.53571,-10.80005 0,-0.53572 z"
       id="path3770-7-5-3-0-7"
       inkscape:connector-curvature="0"
       sodipodi:nodetypes="ccccccccc" />
    <path
       style="fill:#ffffff;fill-opacity:1;stroke:none"
       d="m 67.500026,407.25149 0,-76.84335 10.53571,-10.80017 10.53571,10.80017 0,77.91478 -10.53571,10.80005 -10.53571,-10.80005 0,-0.53572 z"
       id="path3770-7-6-3-1-51-2"
       inkscape:connector-curvature="0"
       sodipodi:nodetypes="ccccccccc" />
  </g>
</svg>
